<svg viewBox="0 0 50 47" version="1.1" xmlns="http://www.w3.org/2000/svg">
    <rect class="bg" fill="#F5DEB3" width="100%" height="100%"></rect>
    <path class="letter" d="M7.55374472,22.8698921 C6.26468221,21.0885441 5.62015095,18.8061935 5.62015095,16.0228402 C5.62015095,13.2394869 6.66019018,10.7980882 8.74026863,8.69864408 C10.8203464,6.59919992 13.4424166,5.54947784 16.6064791,5.54947784 C19.7705415,5.54947784 22.5171237,7.18768227 24.8462254,10.4640911 C25.0952487,10.8299041 25.3442723,11.0128106 25.5932962,11.0128106 C25.8423195,11.0128106 26.0766944,10.7742368 26.296421,10.2970891 C27.7612646,7.13201492 29.9145849,5.54947784 32.7563819,5.54947784 C36.2866553,5.54947784 38.58646,8.2612593 39.6557959,13.6848222 C39.8315771,14.5754997 40.0879247,15.0208385 40.4248389,15.0208385 C40.5273784,15.0208385 40.644566,14.9731251 40.7764017,14.8776983 C40.9082374,14.7822646 41.0693701,14.7345478 41.2597999,14.7345478 C41.6260108,14.7345478 41.8091163,14.9413127 41.8091163,15.3548425 C41.8091163,15.6093208 41.6553079,15.8478946 41.3476911,16.070564 L35.0195655,20.6750247 C34.8291357,20.8181683 34.7339208,20.9772164 34.7339208,21.1521689 C34.7339208,21.3112135 34.8950539,21.49412 35.21732,21.7008884 C35.7446633,22.0507934 36.176792,22.5756544 36.5137062,23.2754715 C37.1435891,24.6114808 37.6636087,26.7824967 38.073765,29.7885194 C38.4985694,32.7786341 39.0112647,34.7428851 39.6118508,35.6812725 C40.212437,36.6037589 40.8276715,37.0650021 41.4575544,37.0650021 C41.691929,37.0650021 41.9116555,36.9854763 42.116734,36.8264248 C42.3364605,36.6673733 42.5342144,36.5878475 42.7099955,36.5878475 C43.0762064,36.5878475 43.2593118,36.8105169 43.2593118,37.2558556 C43.2593118,37.478525 43.1348002,37.6852899 42.8857769,37.8761503 L39.5459327,40.3573085 C38.8574563,40.866265 38.205601,41.1207433 37.5903668,41.1207433 C36.43314,41.1207433 35.3784524,40.3811669 34.426304,38.902014 C33.4741557,37.4228611 32.778355,35.1087015 32.3389019,31.9595353 C31.8994488,28.7944611 31.4673197,26.7665888 31.0425147,25.8759182 C30.6177103,24.9852408 30.244175,24.539902 29.9219089,24.539902 C29.7754246,24.539902 29.6362646,24.5876189 29.5044289,24.6830526 C29.3725926,24.7784793 29.2114598,24.8261927 29.0210307,24.8261927 C28.6401711,24.8261927 28.4497413,24.6194312 28.4497413,24.2059084 C28.4497413,23.9673311 28.610874,23.7287572 28.9331395,23.4901869 L35.4370465,18.7664375 C35.6860698,18.591485 35.8105815,18.4165325 35.8105815,18.24158 C35.8105815,18.0507195 35.6567727,17.867813 35.3491553,17.6928605 C34.6020848,17.2634227 34.0674168,16.261414 33.7451514,14.6868344 C32.8662452,10.3607104 31.7456398,8.19764841 30.3833351,8.19764841 C29.2261082,8.19764841 28.2300144,9.09627292 27.3950537,10.8935219 C27.0141941,11.6887657 26.8237643,12.5873902 26.8237643,13.5893955 C26.8237643,14.2096867 26.8970065,14.8538364 27.0434908,15.5218445 C27.4097017,17.1918509 27.5928072,19.148148 27.5928072,21.3907358 C27.5928072,26.3689669 25.6592134,31.4823876 21.7920259,36.730998 C19.6387059,39.6574949 17.800327,41.1207433 16.2768893,41.1207433 C14.7534521,41.1207433 13.4277685,40.1664515 12.2998384,38.2578678 C11.4648777,36.8582337 10.7397799,36.1584167 10.1245451,36.1584167 C9.86087375,36.1584167 9.63382318,36.2856558 9.44339338,36.5401341 C9.25296358,36.7946124 9.05520975,36.9218515 8.8501319,36.9218515 C8.45462361,36.9218515 8.25686947,36.7150901 8.25686947,36.3015672 C8.25686947,36.0947988 8.337436,35.88008 8.49856905,35.6574106 C10.3296236,33.1444436 11.9775727,31.88796 13.4424163,31.88796 C14.9072605,31.88796 16.1963231,32.8422519 17.3096038,34.7508356 C18.1299165,36.1345617 18.8476903,36.8264248 19.4629251,36.8264248 C19.9023782,36.8264248 20.3491553,36.5321836 20.8032564,35.9437013 C22.7514986,33.3989253 23.7256197,29.9396169 23.7256197,25.5657761 C23.7256197,21.1919283 22.3413426,17.2236599 19.5727884,13.6609707 C17.9907565,11.6251444 16.17435,10.6072312 14.1235689,10.6072312 C12.0874359,10.6072312 10.5200531,11.3070483 9.42142034,12.7066823 C8.32278763,14.1063095 7.77347127,15.6570342 7.77347127,17.3588564 C7.77347127,19.0606787 8.27151816,20.5954989 9.26761195,21.9633171 C10.2637057,23.3311353 11.6333348,24.0150444 13.3764991,24.0150444 C15.1196627,24.0150444 16.4453463,23.5776597 17.3535499,22.7028901 C17.6025732,22.4643198 17.8222997,22.3450346 18.0127295,22.3450346 C18.4228859,22.3450346 18.627964,22.55975 18.627964,22.9891808 C18.627964,23.1959422 18.5034521,23.4186116 18.2544282,23.6571889 C16.9360689,24.9136724 15.1416354,25.5419142 12.8711278,25.5419142 C10.6152683,25.5419142 8.84280724,24.6512402 7.55374472,22.8698921 Z" id="Path" fill="#000000" fill-rule="nonzero"></path>
</svg>